<?xml version="1.0" encoding="UTF-8" standalone="no"?>
<svg
   xmlns:dc="http://purl.org/dc/elements/1.1/"
   xmlns:cc="http://creativecommons.org/ns#"
   xmlns:rdf="http://www.w3.org/1999/02/22-rdf-syntax-ns#"
   xmlns:svg="http://www.w3.org/2000/svg"
   xmlns="http://www.w3.org/2000/svg"
   viewBox="0 0 1066.6667 533.33331"
   height="533.33331"
   width="1066.6667"
   xml:space="preserve"
   id="svg2"
   version="1.1"><metadata
     id="metadata8"><rdf:RDF><cc:Work
         rdf:about=""><dc:format>image/svg+xml</dc:format><dc:type
           rdf:resource="http://purl.org/dc/dcmitype/StillImage" /></cc:Work></rdf:RDF></metadata><defs
     id="defs6"><clipPath
       id="clipPath20"
       clipPathUnits="userSpaceOnUse"><path
         id="path18"
         d="M 0,400 H 800 V 0 H 0 Z" /></clipPath></defs><g
     transform="matrix(1.3333333,0,0,-1.3333333,0,533.33333)"
     id="g10"><path
       id="path12"
       style="fill:#81c4d8;fill-opacity:1;fill-rule:nonzero;stroke:none"
       d="M 0,0 H 800 V 400 H 0 Z" /><g
       id="g14"><g
         clip-path="url(#clipPath20)"
         id="g16"><g
           transform="translate(425,296.375)"
           id="g22"><path
             id="path24"
             style="fill:#05060c;fill-opacity:1;fill-rule:nonzero;stroke:none"
             d="M 0,0 C 3.217,0 3.223,5 0,5 -3.217,5 -3.223,0 0,0" /></g><g
           transform="translate(425,296.375)"
           id="g26"><path
             id="path28"
             style="fill:#05060c;fill-opacity:1;fill-rule:nonzero;stroke:none"
             d="M 0,0 C 3.217,0 3.223,5 0,5 -3.217,5 -3.223,0 0,0" /></g><g
           transform="translate(385.1069,304.6587)"
           id="g30"><path
             id="path32"
             style="fill:#05060c;fill-opacity:1;fill-rule:nonzero;stroke:none"
             d="m 0,0 c 3.346,0.825 6.692,1.649 10.038,2.473 2.469,0.609 4.957,1.224 7.256,2.31 2.3,1.085 4.426,2.688 5.714,4.881" /></g><g
           transform="translate(385.7715,302.248)"
           id="g34"><path
             id="path36"
             style="fill:#05060c;fill-opacity:1;fill-rule:nonzero;stroke:none"
             d="m 0,0 c 8.48,2.089 19.189,2.982 24.502,10.813 1.811,2.669 -2.519,5.174 -4.317,2.523 C 15.989,7.152 5.332,6.462 -1.329,4.821 -4.452,4.052 -3.129,-0.771 0,0" /></g><g
           transform="translate(388.8926,26.7012)"
           id="g38"><path
             id="path40"
             style="fill:#51bcdd;fill-opacity:1;fill-rule:nonzero;stroke:none"
             d="m 0,0 c 0,0 -238,1.28 -244.333,12.974 0,0 304.333,35.692 430.666,1.859" /></g><g
           transform="translate(410,106.6494)"
           id="g42"><path
             id="path44"
             style="fill:#a7a7b7;fill-opacity:1;fill-rule:nonzero;stroke:none"
             d="m 0,0 c 0,0 -4.344,-14.316 3.995,-12.316 v -32.333 c 0,0 -4.59,2.702 -5.126,-7.149 0,0 -8.869,-5.408 -16.702,-8.63 v -3.221 l 17.5,2 c 0,0 10,-4.586 8.333,-7.293 -1.667,-2.707 2.667,-6.707 2.667,-6.707 0,0 5,-0.253 2.333,6.707 0,0 0.333,9.644 2.667,9.468 2.333,-0.175 13.756,-10.35 22,-5.773 0,0 6.333,2.265 0,2.598 -6.334,0.333 -19.777,9.333 -19.777,9.333 0,0 0.11,8 -4.89,9 l -1.676,32.334 c 0,0 5.676,-3.086 4.009,9.79 z" /></g><g
           transform="translate(377.3872,114.8018)"
           id="g46"><path
             id="path48"
             style="fill:#4788c8;fill-opacity:1;fill-rule:nonzero;stroke:none"
             d="m 0,0 c 0,0 84.28,-32.135 104.28,31.198 20,63.334 -17.339,96.973 -41.837,96.487 C 37.946,127.198 14.946,112.121 -5.387,51.993 -5.387,51.993 -16.279,14.802 0,0" /></g><g
           transform="translate(339.4634,102.2236)"
           id="g50"><path
             id="path52"
             style="fill:#222650;fill-opacity:1;fill-rule:nonzero;stroke:none"
             d="m 0,0 c 3.288,13.136 6.576,26.272 9.864,39.408 0.672,2.686 1.391,5.466 3.14,7.611 2.577,3.158 6.824,4.301 10.783,5.269 8.379,2.05 16.757,4.099 25.135,6.148" /></g><g
           transform="translate(341.874,101.5586)"
           id="g54"><path
             id="path56"
             style="fill:#222650;fill-opacity:1;fill-rule:nonzero;stroke:none"
             d="m 0,0 c 3.354,13.399 6.488,26.878 10.072,40.218 1.069,3.976 2.494,6.81 6.39,8.586 2.959,1.348 6.303,1.916 9.446,2.684 7.089,1.735 14.179,3.468 21.268,5.202 3.124,0.764 1.802,5.587 -1.329,4.822 C 37.47,59.463 29.072,57.482 20.711,55.364 15.23,53.975 9.928,52.155 7.134,46.851 3.851,40.616 2.987,32.525 1.285,25.726 -0.75,17.594 -2.786,9.462 -4.821,1.329 -5.603,-1.793 -0.782,-3.124 0,0" /></g><g
           transform="translate(398.3325,267.9619)"
           id="g58"><path
             id="path60"
             style="fill:#f1c27d;fill-opacity:1;fill-rule:nonzero;stroke:none"
             d="M 0,0 C 3.751,-0.075 7.517,0.644 10.977,2.095" /></g><g
           transform="translate(398.3325,265.4619)"
           id="g62"><path
             id="path64"
             style="fill:#f1c27d;fill-opacity:1;fill-rule:nonzero;stroke:none"
             d="M 0,0 C 4.01,-0.019 7.918,0.688 11.641,2.185 14.59,3.37 13.302,8.208 10.312,7.006 6.978,5.667 3.595,4.983 0,5 -3.218,5.015 -3.222,0.015 0,0" /></g><g
           transform="translate(403.8428,257.0522)"
           id="g66"><path
             id="path68"
             style="fill:#f1c27d;fill-opacity:1;fill-rule:nonzero;stroke:none"
             d="M 0,0 C 2.667,-0.473 5.5,0.056 7.816,1.46" /></g><g
           transform="translate(403.1777,254.6416)"
           id="g70"><path
             id="path72"
             style="fill:#f1c27d;fill-opacity:1;fill-rule:nonzero;stroke:none"
             d="M 0,0 C 3.431,-0.526 6.713,-0.029 9.743,1.712 12.532,3.315 10.017,7.637 7.22,6.029 5.438,5.006 3.385,4.506 1.329,4.822 -0.004,5.026 -1.358,4.484 -1.746,3.076 -2.071,1.892 -1.342,0.206 0,0" /></g><g
           transform="translate(551.833,297)"
           id="g74"><path
             id="path76"
             style="fill:none;stroke:#7d4c12;stroke-width:2.5;stroke-linecap:butt;stroke-linejoin:miter;stroke-miterlimit:10;stroke-dasharray:none;stroke-opacity:1"
             d="m 0,0 c -0.666,-6.5 -8.474,1.486 -8.474,1.486 0,0 -4.942,3.847 -7.9,-5.819" /></g><g
           transform="translate(330.374,197.5283)"
           id="g78"><path
             id="path80"
             style="fill:#f1c27d;fill-opacity:1;fill-rule:nonzero;stroke:none"
             d="m 0,0 0.769,-1.605 c 1.02,-2.131 2.05,-4.29 2.516,-6.606" /></g><g
           transform="translate(328.2153,196.2666)"
           id="g82"><path
             id="path84"
             style="fill:#f1c27d;fill-opacity:1;fill-rule:nonzero;stroke:none"
             d="m 0,0 c 1.188,-2.482 2.432,-4.908 3.033,-7.614 0.696,-3.14 5.518,-1.811 4.821,1.33 C 7.164,-3.177 5.683,-0.329 4.317,2.523 2.928,5.424 -1.384,2.891 0,0" /></g><g
           transform="translate(373.3374,227.2231)"
           id="g86"><path
             id="path88"
             style="fill:#f1c27d;fill-opacity:1;fill-rule:nonzero;stroke:none"
             d="M 0,0 C 1.056,-0.079 2.112,-0.157 3.168,-0.235" /></g><g
           transform="translate(373.3374,224.7231)"
           id="g90"><path
             id="path92"
             style="fill:#f1c27d;fill-opacity:1;fill-rule:nonzero;stroke:none"
             d="m 0,0 c 1.056,-0.079 2.112,-0.157 3.168,-0.235 1.307,-0.098 2.557,1.219 2.5,2.5 -0.064,1.437 -1.1,2.396 -2.5,2.5 C 2.112,4.843 1.056,4.921 0,5 -1.307,5.097 -2.557,3.781 -2.5,2.5 -2.436,1.062 -1.4,0.104 0,0" /></g><g
           transform="translate(419.583,223.8345)"
           id="g94"><path
             id="path96"
             style="fill:#f1c27d;fill-opacity:1;fill-rule:nonzero;stroke:none"
             d="m 0,0 c -4.269,-8.401 -12.03,-14.512 -20.225,-19.164 -2.522,-1.431 -5.104,-2.751 -7.686,-4.069 -2.47,-1.262 -4.941,-2.524 -7.411,-3.786" /></g><g
           transform="translate(417.4248,225.0962)"
           id="g98"><path
             id="path100"
             style="fill:#f1c27d;fill-opacity:1;fill-rule:nonzero;stroke:none"
             d="m 0,0 c -7.22,-13.396 -21.504,-19.521 -34.426,-26.123 -2.866,-1.463 -0.339,-5.779 2.524,-4.317 13.742,7.021 28.552,13.691 36.219,27.917 C 5.844,0.309 1.528,2.837 0,0" /></g><g
           transform="translate(412.4365,228.3354)"
           id="g102"><path
             id="path104"
             style="fill:#f1c27d;fill-opacity:1;fill-rule:nonzero;stroke:none"
             d="m 0,0 c -0.178,-3.744 -1.562,-7.421 -3.895,-10.354 -2.334,-2.932 -5.607,-5.105 -9.215,-6.119 -0.649,-0.183 -1.446,-0.29 -1.907,0.201 -0.627,0.668 -0.075,1.742 0.495,2.459 3.924,4.946 8.452,9.413 13.452,13.27" /></g><g
           transform="translate(409.9365,228.3354)"
           id="g106"><path
             id="path108"
             style="fill:#f1c27d;fill-opacity:1;fill-rule:nonzero;stroke:none"
             d="m 0,0 c -0.264,-3.434 -1.517,-6.771 -3.822,-9.367 -0.99,-1.114 -2.137,-2.083 -3.394,-2.884 -0.578,-0.369 -3.471,-2.181 -4.039,-1.862 0.382,-0.498 0.766,-0.996 1.149,-1.494 -0.41,1.147 5.376,6.279 6.175,7.068 2.251,2.22 4.64,4.279 7.128,6.227 2.532,1.982 -1.029,5.499 -3.536,3.536 -4.393,-3.44 -8.447,-7.271 -12.041,-11.544 -1.372,-1.631 -3.243,-3.509 -2.825,-5.842 0.296,-1.65 1.62,-2.741 3.243,-2.921 4.102,-0.455 9.146,3.358 11.676,6.181 C 2.957,-9.284 4.631,-4.809 5,0 5.246,3.209 0.245,3.193 0,0" /></g><g
           transform="translate(503.7178,222.4404)"
           id="g110"><path
             id="path112"
             style="fill:#77a83e;fill-opacity:1;fill-rule:nonzero;stroke:none"
             d="m 0,0 10.949,-9.541 c 0,0 6,-17.232 13.333,-18.232 0,0 -0.667,14.333 2.333,11.999 3,-2.333 9.334,-9.349 26.667,-2.174 0,0 3.899,8.174 -17.718,10.508 0,0 18.051,6.359 23.385,16.346 5.333,9.987 -10,18.987 -31.334,-2.346 0,0 -3,-7.334 -2.666,4.666 0,0 5.666,18.65 -6.667,8.825 0,0 -8.333,-27.132 -16,-11.145 0,0 -8.23,1.201 -2.282,-8.906" /></g><g
           transform="translate(494,174.5703)"
           id="g114"><path
             id="path116"
             style="fill:#bdd141;fill-opacity:1;fill-rule:nonzero;stroke:none"
             d="m 0,0 c 0,0 8,-18.57 12.667,-9.237 0,0 0.666,17.334 5.666,7.667 5,-9.667 12,-17.667 26,-11.333 0,0 3,7.807 -1.666,12.903 0,0 6,3.379 -2.334,8.737 0,0 -4,10.693 -25,12.026 0,0 25.667,-1.333 12.667,6.667 0,0 -16.23,8 -18.282,-4.667 C 9.718,22.763 -4.333,22.571 0,0" /></g><g
           transform="translate(211.6665,229)"
           id="g118"><path
             id="path120"
             style="fill:#d4d4dd;fill-opacity:1;fill-rule:nonzero;stroke:none"
             d="M 0,0 V -96.104 H 74.333 V -2 Z" /></g><g
           transform="translate(196.6665,41.4023)"
           id="g122"><path
             id="path124"
             style="fill:#333438;fill-opacity:1;fill-rule:nonzero;stroke:none"
             d="m 0,0 16,78.931 c 0,0 1.333,12.334 -3.667,24 -5,11.667 -10,36.334 -10,36.334 l 9.334,-2 2.379,-6.164 0.621,-1.609 14.666,-37.999 h 51.334 l 15.666,43.772 11,-0.334 L 93.667,85.598 110,0 93.667,-1.902 l -16,80.5 -46,0.333 -15,-80.833 z" /></g><g
           transform="translate(205.5449,154.2119)"
           id="g126"><path
             id="path128"
             style="fill:#8b928d;fill-opacity:1;fill-rule:nonzero;stroke:none"
             d="m 0,0 10.955,3.297 -8.166,21.158 -9.334,2 z" /></g><g
           transform="translate(204.7705,81.3799)"
           id="g130"><path
             id="path132"
             style="fill:#8b928d;fill-opacity:1;fill-rule:nonzero;stroke:none"
             d="M 0,0 15.661,-3.63 8.563,-41.88 -8.104,-39.978 Z" /></g><g
           transform="translate(283.0605,76.0908)"
           id="g134"><path
             id="path136"
             style="fill:#8b928d;fill-opacity:1;fill-rule:nonzero;stroke:none"
             d="M 0,0 7.273,-36.591 23.606,-34.688 16.67,1.659 Z" /></g><g
           transform="translate(283.0605,148.8975)"
           id="g138"><path
             id="path140"
             style="fill:#8b928d;fill-opacity:1;fill-rule:nonzero;stroke:none"
             d="M 0,0 11.803,-5.544 16.876,12.77 5.64,15.757 Z" /></g><g
           transform="translate(296,288.6665)"
           id="g142"><path
             id="path144"
             style="fill:#0d4c24;fill-opacity:1;fill-rule:nonzero;stroke:none"
             d="M 0,0 C 0,0 -15.125,12.139 -30.396,-3.431 -45.667,-19 -43.458,-37 -30.396,-39 c 0,0 0.396,11.813 7.396,11.906 L -16.667,-39 c 0,0 9.334,-1.683 8,-7.175 H 8 c 0,0 14.199,23.579 2.6,38.211 0,0 -20.6,0.361 -20.6,2.297 0,4 -0.667,4.667 10,5.667" /></g><g
           transform="translate(372.3335,292.6665)"
           id="g146"><path
             id="path148"
             style="fill:#05060c;fill-opacity:1;fill-rule:nonzero;stroke:none"
             d="m 0,0 c 0,0 -9.667,6.667 -3.667,21.667 0,0 1.407,2.166 -1.963,2.333 0,0 5.797,16.333 27.963,20.667 0,0 1.334,-0.334 0.667,-3.667 l 6.333,3.667 V 42 c 0,0 24.334,6.833 26,-31.5 0,0 -1.666,1.833 -1.833,0 -0.167,-1.833 -1.333,-4.833 -1.333,-4.833 0,0 -1.334,0.333 -1.667,5.166 0,0 -8.464,-2.104 -11.333,14.667 0,0 -15.834,-15.167 -26.834,-14.5 v 3.167 c 0,0 -4.666,-3.5 -12.666,-2.167 z" /></g><g
           transform="translate(372,304.6665)"
           id="g150"><path
             id="path152"
             style="fill:#f1c27d;fill-opacity:1;fill-rule:nonzero;stroke:none"
             d="m 0,0 c 0,0 0.167,-17 2,-20 1.833,-3 11.5,-24.167 37.5,-12.167 0,0 9.981,4.833 13,19 0,0 10.333,2.667 3.167,11.667 0,0 -2.584,3.073 -2.792,-3.797 -0.208,-6.87 -2.388,6.723 -2.042,4.13 0,0 -8.052,-2.161 -11.333,14.667 0,0 -18.167,-17.167 -26.833,-14.5 V 2.167 C 12.667,2.167 6.5,-0.5 0,0" /></g><g
           transform="translate(396,267)"
           id="g154"><path
             id="path156"
             style="fill:#f1c27d;fill-opacity:1;fill-rule:nonzero;stroke:none"
             d="m 0,0 c 0,0 1.704,-8.167 1.185,-10.667 -0.518,-2.5 6.815,-3.666 16.648,2.834 0,0 -1.333,11.333 -2.5,11.333 C 14.167,3.5 9.167,-2 0,0" /></g><g
           transform="translate(438.667,249.8335)"
           id="g158"><path
             id="path160"
             style="fill:#e5802e;fill-opacity:1;fill-rule:nonzero;stroke:none"
             d="m 0,0 c 4.833,16 -22.5,11 -22.5,11 -2,-6.167 -18.167,-7.5 -20.167,-3.833 -2,3.666 -13.833,-1.5 -13.833,-1.5 -2.878,2.12 -12.633,-17.773 -14.392,-21.426 5.579,-5.407 11.225,-5.741 11.225,-5.741 V -45 c 18.5,5.167 34.833,24.833 34.833,24.833 l 9.167,-5.166 c -9.5,-19.667 -44,-31 -44,-31 v -9.5 c 0,0 60.167,-2.167 65,1.166 C 10.166,-61.333 0,0 0,0" /></g><g
           transform="translate(447.667,162.5)"
           id="g162"><path
             id="path164"
             style="fill:#e5802e;fill-opacity:1;fill-rule:nonzero;stroke:none"
             d="m 0,0 v 12.167 h -67.333 c 0,0 -0.167,-5.5 0.833,-6.834 C -65.5,4 -46.667,-10 0,0" /></g><g
           transform="translate(447.667,161.667)"
           id="g166"><path
             id="path168"
             style="fill:#31509e;fill-opacity:1;fill-rule:nonzero;stroke:none"
             d="m 0,0 c 0,0 2.939,-28.5 -2.363,-28 -5.304,0.5 -29.658,-7.167 -64.981,-10.834 0,0 -4.038,-11.085 -9.073,-24.714 -7.758,-21.004 -17.885,-48.05 -19.25,-49.869 -2.25,-3 -22,1.5 -22,3.5 0,2 19.5,90.25 19.5,90.25 0,0 -2.75,12.25 26.75,15.75 L -54.167,0 c 0,0 33.833,-7.084 54.167,0" /></g><g
           transform="translate(371.5156,98.8369)"
           id="g170"><path
             id="path172"
             style="fill:#31509e;fill-opacity:1;fill-rule:nonzero;stroke:none"
             d="m 0,0 c 0,0 17.734,-40.337 16.984,-42.962 -0.75,-2.625 -11.75,-7.875 -17.625,-7.75 0,0 -12.25,16.125 -10.875,18 1.375,1.875 11.251,31.994 11.251,31.994" /></g><g
           transform="translate(338.8335,98.8369)"
           id="g174"><path
             id="path176"
             style="fill:#31509e;fill-opacity:1;fill-rule:nonzero;stroke:none"
             d="m 0,0 c 0,0 -15.833,29.996 -17.167,35.496 -1.333,5.5 -1.166,20.513 23.667,24.59 0,0 30.415,9.36 34.989,7.872 L 52.667,62.83 c 0,0 -48.334,-1.667 -44.667,-24.334 z" /></g><g
           transform="translate(332.0098,50.3584)"
           id="g178"><path
             id="path180"
             style="fill:#f1c27d;fill-opacity:1;fill-rule:nonzero;stroke:none"
             d="m 0,0 c 0,0 -2.676,-11.191 -2.01,-13.691 0,0 12,-1.667 13,-4 1,-2.334 6.857,14.696 6.857,14.696 0,0 -18.004,1.686 -17.847,2.995" /></g><g
           transform="translate(373.3335,48.123)"
           id="g182"><path
             id="path184"
             style="fill:#f1c27d;fill-opacity:1;fill-rule:nonzero;stroke:none"
             d="m 0,0 5.167,-8.623 c 0,0 9.666,4.667 13.666,3.5 4,-1.167 -5.179,10.644 -4.423,11.76 C 15.167,7.752 2.5,-1.711 0,0" /></g><g
           transform="translate(423,224.5)"
           id="g186"><path
             id="path188"
             style="fill:#f1c27d;fill-opacity:1;fill-rule:nonzero;stroke:none"
             d="m 0,0 c 0,0 -26.667,-38.5 -87,-36.833 l -4.333,12.333 c 0,0 28.5,7.193 39.5,31.347 L -44,2.167 c 0,0 -13,-23 -24.333,-28.334 -11.334,-5.333 47.333,9 59.166,31.334 z" /></g><g
           transform="translate(184.3335,246.3335)"
           id="g190"><path
             id="path192"
             style="fill:#196433;fill-opacity:1;fill-rule:nonzero;stroke:none"
             d="M 0,0 C 0,0 10,5.812 9,15.239 9,15.239 58.667,28 34,36 34,36 12.945,29.049 12.333,22.515 c 0,0 -0.333,12.818 2.667,19.818 0,0 36.333,5 28.667,13 0,0 -9.334,3.334 -20,0 C 13,52 34,70 36,68.667 c 2,-1.334 14.333,4.666 25.667,-11.334 0,0 43,6 35.666,-30.666 0,0 -18,25 -27,19.666 0,0 24.334,-9.333 16,-33 0,0 -20.825,-11.666 -37.246,-11.333 0,0 15.913,16.031 8.58,20.515 C 57.667,22.515 32,6.333 32.333,0 Z" /></g><g
           transform="translate(321.2275,268.8486)"
           id="g194"><path
             id="path196"
             style="fill:#0d4c24;fill-opacity:1;fill-rule:nonzero;stroke:none"
             d="m 0,0 c 0,0 51.772,34.485 4.439,58.151 l -27,-2.333 c 0,0 -2.667,9.667 26.333,8 0,0 -17.493,15 -37.333,-8 0,0 -32.667,2.667 -14.667,-16 0,0 38,-12.333 38,-16 0,0 -2,14.667 2,12.333 4,-2.333 8.667,-11.666 4.667,-17.333 C -3.561,18.818 7.227,6.182 0,0" /></g><g
           transform="translate(184.3335,330)"
           id="g198"><path
             id="path200"
             style="fill:#0d4c24;fill-opacity:1;fill-rule:nonzero;stroke:none"
             d="m 0,0 c 0,0 6.323,41.095 49.087,17.667 0,0 8.246,-1.334 18.246,-17.667 0,0 3.667,-5 2.334,1.333 C 68.333,7.667 76,-5 76,-5 c 0,0 0.333,-4.333 -3,-2 l 0.333,-8 c 0,0 -3.496,-10.667 -31.666,13 0,0 16.333,0.667 2.666,7.667 L 32.667,7.333 C 32.667,7.333 16,23.333 0,0" /></g><g
           transform="translate(248.8335,231.3467)"
           id="g202"><path
             id="path204"
             style="fill:#187733;fill-opacity:1;fill-rule:nonzero;stroke:none"
             d="m 0,0 c 0,0 -6.167,8.653 2.833,13.32 9,4.667 15.921,-2.175 15.921,-2.175 0,0 17.438,12.1 18.759,3.804 C 38.833,6.653 34.227,2.32 34.227,2.32 Z" /></g><g
           transform="translate(258,32.4473)"
           id="g206"><path
             id="path208"
             style="fill:#dc7d1c;fill-opacity:1;fill-rule:nonzero;stroke:none"
             d="m 0,0 -2,142.22 9.333,-0.097 -2,-142.156 z" /></g><g
           transform="translate(290.3335,174.5703)"
           id="g210"><path
             id="path212"
             style="fill:#c66b25;fill-opacity:1;fill-rule:nonzero;stroke:none"
             d="M 0,0 V -135.07 H 6 L 8.667,0.097 Z" /></g><g
           transform="translate(439.333,183.3076)"
           id="g214"><path
             id="path216"
             style="fill:#c66b23;fill-opacity:1;fill-rule:nonzero;stroke:none"
             d="M 0,0 H 60 V -8.737 H 18.667 L 16.334,-152.308 H 10.667 L 8.334,-8.641 H 0 Z" /></g><g
           transform="translate(484,39.5)"
           id="g218"><path
             id="path220"
             style="fill:#dc7d1c;fill-opacity:1;fill-rule:nonzero;stroke:none"
             d="m 0,0 -1.667,135.07 h 8 L 5,0 Z" /></g><g
           transform="translate(246.7725,184.667)"
           id="g222"><path
             id="path224"
             style="fill:#db7e29;fill-opacity:1;fill-rule:nonzero;stroke:none"
             d="M 0,0 V -10.097 L 192.561,-10 v 8.641 z" /></g><g
           transform="translate(456.9775,111.6777)"
           id="g226"><path
             id="path228"
             style="fill:#333335;fill-opacity:1;fill-rule:nonzero;stroke:none"
             d="m 0,0 93.689,4.322 c 0,0 -6.334,-50.333 -25.334,-63 l 5,-13.5 H 23.022 l 6.333,9.833 c 0,0 -21.143,15.69 -29.563,49.504 z" /></g><g
           transform="translate(481.833,302.6665)"
           id="g230"><path
             id="path232"
             style="fill:#77a83e;fill-opacity:1;fill-rule:nonzero;stroke:none"
             d="m 0,0 c 0,0 6.5,-6.818 13.167,-9.159 6.667,-2.341 8.333,2.659 13.167,-2.174 0,0 3.833,-4 -5.334,-5.667 -9.166,-1.667 -7.436,-19.167 -7.436,-19.167 0,0 13.77,-13 22.436,13.334 0,0 0.167,9.666 10.834,7 10.666,-2.667 7,11 7,11 0,0 -12.5,-5.5 -20.167,-3 C 26,-5.333 -1.333,-2.333 0,0" /></g><g
           transform="translate(509.0303,332.1665)"
           id="g234"><path
             id="path236"
             style="fill:#77a83e;fill-opacity:1;fill-rule:nonzero;stroke:none"
             d="m 0,0 c 0,0 14.47,-17.333 18.303,-17.167 0,0 -9,-5 -7.5,-10 1.5,-5 20.5,8 22,6.334 0,0 16.334,5 17.834,2.666 1.5,-2.333 5.5,7 5.5,7 0,0 -11,2.167 -12.167,1.5 -1.167,-0.666 -5.667,-0.666 7.167,9 0,0 7.5,9.834 1.833,20 0,0 -8.167,2 -16,-16.333 0,0 -3.5,-2.333 -2.167,7.5 0,0 3.167,21.167 -13.5,23.5 0,0 -18.666,-9.167 0.5,-33.167 0,0 2.5,-5.5 -4.666,-1.833 C 9.97,2.667 12.364,5.667 0,0" /></g><g
           transform="translate(571.167,278.3335)"
           id="g238"><path
             id="path240"
             style="fill:#bdd141;fill-opacity:1;fill-rule:nonzero;stroke:none"
             d="m 0,0 c 0,0 22.833,-13.584 45.5,-15.042 0,0 -6.5,-6.791 -26.334,1.875 0,0 12.667,-17 6.834,-17 -5.834,0 -18.5,6.667 -22,16.167 0,0 -2.167,3.833 -0.667,-4.333 0,0 6,-9.667 -3.333,-4.167 C -9.334,-17 -2.167,0 -2.167,0 c 0,0 -4.333,11.5 -17.167,18.667 v 1.5 C -19.334,20.167 3.372,3.511 0,0" /></g><g
           transform="translate(333,186)"
           id="g242"><path
             id="path244"
             style="fill:#90909e;fill-opacity:1;fill-rule:nonzero;stroke:none"
             d="M 0,0 -19.667,56.492 H -85.333 L -68.667,-2.692 H 0 Z" /></g><g
           transform="translate(295.8057,211.1406)"
           id="g246"><path
             id="path248"
             style="fill:#b6b6c1;fill-opacity:1;fill-rule:nonzero;stroke:none"
             d="m 0,0 c 0,-3.672 -2.977,-6.648 -6.649,-6.648 -3.672,0 -6.648,2.976 -6.648,6.648 0,3.672 2.976,6.649 6.648,6.649 C -2.977,6.649 0,3.672 0,0" /></g><g
           transform="translate(299,280.7021)"
           id="g250"><path
             id="path252"
             style="fill:#196a2f;fill-opacity:1;fill-rule:nonzero;stroke:none"
             d="m 0,0 c 0,0 -6.263,-33.737 4.263,-32.536 10.527,1.203 7.031,25.167 7.031,25.167 0,0 -3.978,11.334 -11.294,7.369" /></g><g
           transform="translate(211,304.4048)"
           id="g254"><path
             id="path256"
             style="fill:#1c692f;fill-opacity:1;fill-rule:nonzero;stroke:none"
             d="M 0,0 C 0,0 22.298,3.881 26.833,-3.905 26.833,-3.905 18.896,19.268 0,0" /></g><g
           transform="translate(250.8335,281.5435)"
           id="g258"><path
             id="path260"
             style="fill:#1c692f;fill-opacity:1;fill-rule:nonzero;stroke:none"
             d="m 0,0 c 0,0 5.167,0.79 4.833,3.79 0,0 14.176,-14.333 11.921,-18.667 -2.254,-4.333 -19.921,-13.166 -19.921,-13.166 0,0 7.5,14 0,17 0,0 5.667,6.087 3.167,11.043" /></g><g
           transform="translate(295.8057,314)"
           id="g262"><path
             id="path264"
             style="fill:#1c692f;fill-opacity:1;fill-rule:nonzero;stroke:none"
             d="M 0,0 C 0,0 -8.556,14.333 -24.806,4.167 -24.806,4.167 -16.194,-9.5 0,0" /></g><g
           transform="translate(321.25,324.5)"
           id="g266"><path
             id="path268"
             style="fill:#1c692f;fill-opacity:1;fill-rule:nonzero;stroke:none"
             d="M 0,0 C 0,0 22.489,-6.122 21.24,-29.5 21.24,-29.5 3.124,-16.244 0,0" /></g><g
           transform="translate(205.1851,342.606)"
           id="g270"><path
             id="path272"
             style="fill:#1c692f;fill-opacity:1;fill-rule:nonzero;stroke:none"
             d="m 0,0 17.153,9.144 c 0,0 -24.127,13.988 -37.108,-18.006 0,0 9.14,6.718 19.955,8.862" /></g><g
           transform="translate(226.5,229)"
           id="g274"><path
             id="path276"
             style="fill:none;stroke:#187733;stroke-width:2;stroke-linecap:butt;stroke-linejoin:miter;stroke-miterlimit:10;stroke-dasharray:none;stroke-opacity:1"
             d="M 0,0 C 0,0 -7.333,15.725 11.333,37.112" /></g><g
           transform="translate(257.4687,319.7485)"
           id="g278"><path
             id="path280"
             style="fill:none;stroke:#187733;stroke-width:2;stroke-linecap:butt;stroke-linejoin:miter;stroke-miterlimit:10;stroke-dasharray:none;stroke-opacity:1"
             d="M 0,0 C 0,0 16.361,-11.32 14.446,-19.91" /></g><g
           transform="translate(280.1123,306.2803)"
           id="g282"><path
             id="path284"
             style="fill:none;stroke:#187733;stroke-width:2;stroke-linecap:butt;stroke-linejoin:miter;stroke-miterlimit:10;stroke-dasharray:none;stroke-opacity:1"
             d="M 0,0 C 0,0 -0.933,-11.417 -4.565,-8.929" /></g><g
           transform="translate(264.77,244.4941)"
           id="g286"><path
             id="path288"
             style="fill:none;stroke:#187733;stroke-width:2;stroke-linecap:butt;stroke-linejoin:miter;stroke-miterlimit:10;stroke-dasharray:none;stroke-opacity:1"
             d="M 0,0 10.777,15.006" /></g><g
           transform="translate(539.2822,110.083)"
           id="g290"><path
             id="path292"
             style="fill:#1f2021;fill-opacity:1;fill-rule:nonzero;stroke:none"
             d="m 0,0 c 0,0 -4.282,-49.333 -18.282,-51.458 l 4,-15.625 h -13 v 15.625 c 0,0 25.704,47.253 13.641,51.458 C -25.703,4.206 0,0 0,0" /></g><g
           transform="translate(529.5,362)"
           id="g294"><path
             id="path296"
             style="fill:#bdd573;fill-opacity:1;fill-rule:nonzero;stroke:none"
             d="M 0,0 C 0,0 -12.5,-10.985 5,-26.993 5,-26.993 19.5,-5 0,0" /></g><g
           transform="translate(509.0303,282.979)"
           id="g298"><path
             id="path300"
             style="fill:#bdd573;fill-opacity:1;fill-rule:nonzero;stroke:none"
             d="m 0,0 c 0,0 -11.863,-0.315 -9.697,-15.147 0,0 17.843,0.289 9.697,15.147" /></g><g
           transform="translate(571,262.4229)"
           id="g302"><path
             id="path304"
             style="fill:#bdd573;fill-opacity:1;fill-rule:nonzero;stroke:none"
             d="m 0,0 c 0,0 4.275,12.497 6.5,3.689 2.225,-8.808 13,-12.612 13,-12.612 0,0 -8.499,13.5 -9.75,17 C 8.499,11.577 -0.167,6.589 0,0" /></g><g
           transform="translate(558.1016,239.3711)"
           id="g306"><path
             id="path308"
             style="fill:#bdd573;fill-opacity:1;fill-rule:nonzero;stroke:none"
             d="m 0,0 c 0,0 -15.446,6.193 -21.826,-16.65 0,0 26.17,-3.006 21.826,16.65" /></g><g
           transform="translate(505.1152,113.8984)"
           id="g310"><path
             id="path312"
             style="fill:none;stroke:#7d4c12;stroke-width:2.5;stroke-linecap:butt;stroke-linejoin:miter;stroke-miterlimit:10;stroke-dasharray:none;stroke-opacity:1"
             d="M 0,0 C 0,0 0.129,28.522 14.674,48.966" /></g><g
           transform="translate(534.333,183.3076)"
           id="g314"><path
             id="path316"
             style="fill:none;stroke:#7d4c12;stroke-width:2.5;stroke-linecap:butt;stroke-linejoin:miter;stroke-miterlimit:10;stroke-dasharray:none;stroke-opacity:1"
             d="M 0,0 C 0,0 3.526,13.677 -1.903,21.185" /></g><g
           transform="translate(528.7666,229)"
           id="g318"><path
             id="path320"
             style="fill:none;stroke:#7d4c12;stroke-width:2.5;stroke-linecap:butt;stroke-linejoin:miter;stroke-miterlimit:10;stroke-dasharray:none;stroke-opacity:1"
             d="m 0,0 c 0,0 16.985,31.017 14.593,69.486 -0.262,4.203 -0.754,8.496 -1.527,12.847" /></g><g
           transform="translate(401.0127,299.8599)"
           id="g322"><path
             id="path324"
             style="fill:#05060c;fill-opacity:1;fill-rule:nonzero;stroke:none"
             d="M 0,0 C 0,0 6.5,6.528 9.25,0" /></g><g
           transform="translate(378.6318,296.9731)"
           id="g326"><path
             id="path328"
             style="fill:#05060c;fill-opacity:1;fill-rule:nonzero;stroke:none"
             d="M 0,0 C 0,0 6.951,6.035 9.891,0" /></g><g
           transform="translate(408.1777,290.5439)"
           id="g330"><path
             id="path332"
             style="fill:#cccfd1;fill-opacity:1;fill-rule:nonzero;stroke:none"
             d="m 0,0 c 0,-2.175 -1.518,-3.938 -3.389,-3.938 -1.871,0 -3.387,1.763 -3.387,3.938 0,2.174 1.516,3.938 3.387,3.938 C -1.518,3.938 0,2.174 0,0" /></g><g
           transform="translate(387.6489,290.5439)"
           id="g334"><path
             id="path336"
             style="fill:#cccfd1;fill-opacity:1;fill-rule:nonzero;stroke:none"
             d="m 0,0 c 0,-2.175 -1.517,-3.938 -3.388,-3.938 -1.871,0 -3.388,1.763 -3.388,3.938 0,2.174 1.517,3.938 3.388,3.938 C -1.517,3.938 0,2.174 0,0" /></g><g
           transform="translate(404.9453,293.1729)"
           id="g338"><path
             id="path340"
             style="fill:#010102;fill-opacity:1;fill-rule:nonzero;stroke:none"
             d="m 0,0 c 0,0 3.013,-1.508 0.138,-5.258 0,0 -4.027,1.765 -0.138,5.258" /></g><g
           transform="translate(384.4165,293.1729)"
           id="g342"><path
             id="path344"
             style="fill:#010102;fill-opacity:1;fill-rule:nonzero;stroke:none"
             d="m 0,0 c 0,0 3.013,-1.508 0.138,-5.258 0,0 -4.026,1.765 -0.138,5.258" /></g><g
           transform="translate(394.4336,288.3335)"
           id="g346"><path
             id="path348"
             style="fill:none;stroke:#030506;stroke-width:1;stroke-linecap:butt;stroke-linejoin:miter;stroke-miterlimit:10;stroke-dasharray:none;stroke-opacity:1"
             d="m 0,0 v -2.75 c 0,0 -4.5,-2.5 1.75,-3.25" /></g><g
           transform="translate(434,239.1665)"
           id="g350"><path
             id="path352"
             style="fill:none;stroke:#d56313;stroke-width:1;stroke-linecap:butt;stroke-linejoin:miter;stroke-miterlimit:10;stroke-dasharray:none;stroke-opacity:1"
             d="M 0,0 C 1.167,-7.833 -11,-14.667 -11,-14.667 L -20.167,-9.5 -9.333,4" /></g><g
           transform="translate(379,228.3335)"
           id="g354"><path
             id="path356"
             style="fill:none;stroke:#d56313;stroke-width:1;stroke-linecap:butt;stroke-linejoin:miter;stroke-miterlimit:10;stroke-dasharray:none;stroke-opacity:1"
             d="M 0,0 C 0,0 3.578,7.983 1.873,14.158" /></g><g
           transform="translate(391.5,258.2373)"
           id="g358"><path
             id="path360"
             style="fill:none;stroke:#d56313;stroke-width:1;stroke-linecap:butt;stroke-linejoin:miter;stroke-miterlimit:10;stroke-dasharray:none;stroke-opacity:1"
             d="M 0,0 C 0,0 11.166,-13.904 28.083,2.263" /></g><g
           transform="translate(392.0913,164.0078)"
           id="g362"><path
             id="path364"
             style="fill:#e5802e;fill-opacity:1;fill-rule:nonzero;stroke:none"
             d="M 0,0 C -1.313,0.588 -2.625,1.177 -3.938,1.765 -5.736,2.57 -7.533,3.376 -9.331,4.182" /></g><g
           transform="translate(393.353,166.167)"
           id="g366"><path
             id="path368"
             style="fill:#e5802e;fill-opacity:1;fill-rule:nonzero;stroke:none"
             d="m 0,0 c -3.11,1.394 -6.221,2.787 -9.331,4.182 -2.912,1.304 -5.458,-3.002 -2.523,-4.318 3.11,-1.394 6.22,-2.788 9.331,-4.181 C 0.389,-5.623 2.935,-1.315 0,0" /></g><g
           transform="translate(418.3066,160.8975)"
           id="g370"><path
             id="path372"
             style="fill:#e5802e;fill-opacity:1;fill-rule:nonzero;stroke:none"
             d="m 0,0 c 3.24,0.13 6.48,0.259 9.72,0.389 2.6,0.103 5.2,0.208 7.8,0.311 3.141,0.126 6.289,0.252 9.403,0.681 l -7.251,-1.477 c -1.836,-0.373 -3.685,-0.749 -5.559,-0.778 -1.544,-0.024 -3.081,0.186 -4.61,0.395 -1.244,0.171 -2.489,0.342 -3.733,0.513" /></g><g
           transform="translate(418.3066,158.3975)"
           id="g374"><path
             id="path376"
             style="fill:#e5802e;fill-opacity:1;fill-rule:nonzero;stroke:none"
             d="m 0,0 c 8.946,0.357 18.027,0.319 26.923,1.381 l -0.665,4.91 C 19.319,4.879 13.506,3.974 6.435,4.944 3.288,5.376 1.927,0.56 5.105,0.123 8.713,-0.372 12.328,-1.091 15.979,-0.742 19.878,-0.369 23.757,0.69 27.587,1.47 30.305,2.023 29.741,6.717 26.923,6.381 18.026,5.319 8.946,5.357 0,5 -3.207,4.872 -3.224,-0.129 0,0" /></g><g
           transform="translate(442.498,185.9219)"
           id="g378"><path
             id="path380"
             style="fill:#e5802e;fill-opacity:1;fill-rule:nonzero;stroke:none"
             d="M 0,0 C -3.374,-0.153 -6.748,-0.307 -10.121,-0.459" /></g><g
           transform="translate(442.498,188.4219)"
           id="g382"><path
             id="path384"
             style="fill:#e5802e;fill-opacity:1;fill-rule:nonzero;stroke:none"
             d="m 0,0 c -3.374,-0.153 -6.748,-0.307 -10.121,-0.459 -3.205,-0.145 -3.223,-5.146 0,-5 C -6.748,-5.307 -3.374,-5.153 0,-5 3.204,-4.854 3.222,0.146 0,0" /></g><g
           transform="translate(422.2646,45.209)"
           id="g386"><path
             id="path388"
             style="fill:#a7a7b7;fill-opacity:1;fill-rule:nonzero;stroke:none"
             d="M 0,0 C 1.307,0.459 2.502,1.231 3.458,2.233" /></g><g
           transform="translate(422.9287,42.7988)"
           id="g390"><path
             id="path392"
             style="fill:#a7a7b7;fill-opacity:1;fill-rule:nonzero;stroke:none"
             d="m 0,0 c 1.729,0.633 3.268,1.555 4.562,2.876 0.916,0.936 1.001,2.616 0,3.536 C 3.572,7.32 2.004,7.41 1.026,6.412 0.81,6.19 0.584,5.985 0.354,5.778 0.13,5.595 0.117,5.583 0.315,5.742 0.19,5.652 0.063,5.565 -0.065,5.482 -0.324,5.315 -0.591,5.161 -0.865,5.022 -1.003,4.953 -1.142,4.887 -1.282,4.824 -1.04,4.928 -1.056,4.927 -1.329,4.821 -2.554,4.373 -3.515,3.104 -3.075,1.746 -2.687,0.544 -1.314,-0.481 0,0" /></g><g
           transform="translate(421.833,42.6113)"
           id="g394"><path
             id="path396"
             style="fill:#a7a7b7;fill-opacity:1;fill-rule:nonzero;stroke:none"
             d="M 0,0 C 2.373,-0.026 4.706,1.383 5.788,3.495" /></g><g
           transform="translate(421.833,40.1113)"
           id="g398"><path
             id="path400"
             style="fill:#a7a7b7;fill-opacity:1;fill-rule:nonzero;stroke:none"
             d="M 0,0 C 3.296,0.058 6.353,1.827 7.946,4.733 9.494,7.557 5.179,10.082 3.629,7.257 2.872,5.878 1.573,5.027 0,5 -3.214,4.943 -3.225,-0.057 0,0" /></g><g
           transform="translate(418.7422,41.7334)"
           id="g402"><path
             id="path404"
             style="fill:#a7a7b7;fill-opacity:1;fill-rule:nonzero;stroke:none"
             d="M 0,0 C -2.052,0.806 -4.021,1.818 -5.87,3.019 -6.177,3.218 -6.486,3.428 -6.7,3.724 -6.915,4.019 -7.02,4.42 -6.875,4.756" /></g><g
           transform="translate(419.4072,44.1445)"
           id="g406"><path
             id="path408"
             style="fill:#a7a7b7;fill-opacity:1;fill-rule:nonzero;stroke:none"
             d="m 0,0 c -1.059,0.425 -2.088,0.92 -3.089,1.466 -0.446,0.243 -0.888,0.497 -1.323,0.76 -0.29,0.175 -0.577,0.356 -0.861,0.541 -0.142,0.085 -0.116,0.048 0.077,-0.109 V 1.329 c 0.022,0.117 0.045,0.233 0.067,0.351 0.25,1.325 -0.37,2.697 -1.746,3.075 -1.221,0.336 -2.823,-0.412 -3.076,-1.746 -0.456,-2.41 0.874,-3.78 2.8,-4.967 1.849,-1.142 3.806,-2.055 5.821,-2.863 1.254,-0.504 2.747,0.549 3.076,1.746 C 2.138,-1.649 1.258,-0.505 0,0" /></g><g
           transform="translate(395.1138,44.9063)"
           id="g410"><path
             id="path412"
             style="fill:#131228;fill-opacity:1;fill-rule:nonzero;stroke:none"
             d="m 0,0 c 0,0 -13.956,-0.065 -16.042,-2.832 0,0 -3.347,-7.36 -10.993,-9.609 0,0 0.16,-2.576 -3.573,-3.16 0,0 1.077,-6.094 18.416,0.885 C 5.146,-7.736 0,0 0,0" /></g><g
           transform="translate(369.4351,28.833)"
           id="g414"><path
             id="path416"
             style="fill:#131228;fill-opacity:1;fill-rule:nonzero;stroke:none"
             d="M 0,0 C 3.217,0 3.223,5 0,5 -3.217,5 -3.223,0 0,0" /></g><g
           transform="translate(343.6138,34.2588)"
           id="g418"><path
             id="path420"
             style="fill:#131228;fill-opacity:1;fill-rule:nonzero;stroke:none"
             d="m 0,0 c 0,0 -13.149,4.677 -16.05,2.783 0,0 -5.648,-5.787 -13.603,-5.306 0,0 -0.724,-2.477 -4.434,-1.758 0,0 -1.056,-6.099 17.622,-5.421 C 2.213,-9.023 0,0 0,0" /></g><g
           transform="translate(313.8599,28.0693)"
           id="g422"><path
             id="path424"
             style="fill:#131228;fill-opacity:1;fill-rule:nonzero;stroke:none"
             d="M 0,0 C 3.217,0 3.223,5 0,5 -3.217,5 -3.223,0 0,0" /></g><g
           transform="translate(529.8301,111.5771)"
           id="g426"><path
             id="path428"
             style="fill:#1f2021;fill-opacity:1;fill-rule:nonzero;stroke:none"
             d="m 0,0 c 4.219,-0.132 8.437,-0.264 12.655,-0.396 0.815,-0.025 1.666,-0.06 2.375,-0.463 0.964,-0.549 1.466,-1.694 1.53,-2.802 0.064,-1.108 -0.241,-2.199 -0.548,-3.266 -3.74,-12.963 -8.287,-25.692 -13.609,-38.09 -2.018,-4.703 -4.258,-9.51 -8.114,-12.877" /></g><g
           transform="translate(529.8301,109.0771)"
           id="g430"><path
             id="path432"
             style="fill:#1f2021;fill-opacity:1;fill-rule:nonzero;stroke:none"
             d="m 0,0 c 3.013,-0.095 6.026,-0.188 9.039,-0.282 0.739,-0.024 3.03,0.293 3.616,-0.114 1.598,-1.108 0.571,-4.662 0.168,-6.014 -1.662,-5.584 -3.472,-11.123 -5.432,-16.61 -3.588,-10.04 -6.925,-23.077 -14.87,-30.605 -2.339,-2.219 1.2,-5.75 3.536,-3.536 5.031,4.767 7.578,11.085 10.189,17.369 3.178,7.646 6.065,15.41 8.65,23.274 1.542,4.692 6.404,13.909 3.103,18.697 C 16.695,4.07 14.802,4.393 12.655,4.604 8.485,5.016 4.187,4.869 0,5 -3.219,5.101 -3.215,0.101 0,0" /></g><g
           transform="translate(522.8057,56.5537)"
           id="g434"><path
             id="path436"
             style="fill:#1f2021;fill-opacity:1;fill-rule:nonzero;stroke:none"
             d="m 0,0 c -0.594,2.152 -0.046,4.485 0.981,6.468 1.028,1.981 2.505,3.686 3.906,5.426 10.307,12.803 16.998,28.489 19.105,44.791 0.123,-0.969 0.246,-1.937 0.369,-2.906" /></g><g
           transform="translate(525.2168,57.2178)"
           id="g438"><path
             id="path440"
             style="fill:#1f2021;fill-opacity:1;fill-rule:nonzero;stroke:none"
             d="m 0,0 c -0.812,5.51 5.281,10.551 8.203,14.728 2.925,4.18 5.487,8.608 7.663,13.223 4.101,8.695 6.802,17.887 8.126,27.404 -1.637,0.222 -3.273,0.444 -4.911,0.666 0.123,-0.969 0.246,-1.937 0.369,-2.906 0.4,-3.148 5.404,-3.188 5,0 -0.123,0.969 -0.246,1.937 -0.369,2.906 -0.314,2.481 -4.482,3.738 -4.91,0.665 C 17.593,45.341 14.078,34.418 8.421,24.437 5.566,19.402 2.09,14.979 -1.385,10.375 -4.153,6.706 -5.496,3.246 -4.821,-1.329 -4.354,-4.501 0.465,-3.152 0,0" /></g><g
           transform="translate(547.333,110.167)"
           id="g442"><path
             id="path444"
             style="fill:#1f2021;fill-opacity:1;fill-rule:nonzero;stroke:none"
             d="M 0,0 C 3.218,0 3.223,5 0,5 -3.217,5 -3.223,0 0,0" /></g><g
           transform="translate(543.1582,112.9492)"
           id="g446"><path
             id="path448"
             style="fill:#1f2021;fill-opacity:1;fill-rule:nonzero;stroke:none"
             d="m 0,0 c -4.329,0.051 -8.659,0.101 -12.988,0.151 -0.818,0.01 -1.702,-0.002 -2.353,-0.497 -1.225,-0.931 -0.856,-2.817 -0.507,-4.315 1.11,-4.767 0.728,-9.782 -0.397,-14.545 -1.126,-4.762 -2.974,-9.318 -4.815,-13.852 -3.082,-7.591 -6.165,-15.184 -9.247,-22.776" /></g><g
           transform="translate(543.1582,115.4492)"
           id="g450"><path
             id="path452"
             style="fill:#1f2021;fill-opacity:1;fill-rule:nonzero;stroke:none"
             d="m 0,0 c -3.71,0.044 -7.422,0.116 -11.133,0.13 -1.987,0.007 -4.359,0.231 -5.975,-1.208 -3.485,-3.102 -0.398,-10.448 -0.663,-14.274 -0.514,-7.45 -3.638,-14.461 -6.411,-21.294 -2.843,-7.007 -5.69,-14.015 -8.536,-21.023 -1.21,-2.98 3.625,-4.276 4.822,-1.329 4.539,11.18 9.984,22.373 13.35,33.972 1.511,5.204 2.304,10.665 1.546,16.066 -0.151,1.076 -0.791,2.259 -0.213,3.287 0.748,1.33 2.242,0.801 3.936,0.781 C -6.185,-4.928 -3.093,-4.964 0,-5 3.219,-5.037 3.221,-0.037 0,0" /></g><g
           transform="translate(512.248,55.8115)"
           id="g454"><path
             id="path456"
             style="fill:#1f2021;fill-opacity:1;fill-rule:nonzero;stroke:none"
             d="m 0,0 c -0.058,-4.021 -0.116,-8.043 -0.174,-12.065 -0.006,-0.414 0.004,-0.87 0.284,-1.173 0.286,-0.312 0.755,-0.353 1.178,-0.373 4.913,-0.241 9.826,-0.481 14.739,-0.72 l -4.095,8.021" /></g><g
           transform="translate(509.748,55.8115)"
           id="g458"><path
             id="path460"
             style="fill:#1f2021;fill-opacity:1;fill-rule:nonzero;stroke:none"
             d="m 0,0 c -0.046,-3.217 -0.093,-6.435 -0.139,-9.652 -0.029,-2.031 -0.387,-4.399 1.488,-5.745 1.871,-1.345 5.195,-0.849 7.352,-0.955 3.276,-0.16 6.551,-0.319 9.826,-0.479 2,-0.098 2.973,2.167 2.159,3.762 l -4.096,8.021 c -1.464,2.866 -5.779,0.339 -4.318,-2.523 l 4.096,-8.022 2.159,3.762 c -2.457,0.12 -4.913,0.239 -7.37,0.359 -1.606,0.079 -5.361,0.951 -6.756,0.33 -1.029,0.182 -0.887,-0.126 0.425,-0.923 l 0.018,1.207 c 0.227,1.016 0.037,2.575 0.052,3.619 C 4.931,-4.826 4.965,-2.413 5,0 5.047,3.219 0.047,3.221 0,0" /></g><g
           transform="translate(543.5781,94.8672)"
           id="g462"><path
             id="path464"
             style="fill:#1f2021;fill-opacity:1;fill-rule:nonzero;stroke:none"
             d="M 0,0 C -1.66,-12.572 -6.551,-24.705 -14.075,-34.913" /></g><g
           transform="translate(541.168,95.5313)"
           id="g466"><path
             id="path468"
             style="fill:#1f2021;fill-opacity:1;fill-rule:nonzero;stroke:none"
             d="m 0,0 c -1.801,-12.507 -6.444,-24.055 -13.823,-34.315 -1.882,-2.618 2.453,-5.117 4.317,-2.525 7.602,10.57 12.472,22.623 14.327,35.511 C 5.274,1.818 0.457,3.178 0,0" /></g><g
           transform="translate(390.25,274.875)"
           id="g470"><path
             id="path472"
             style="fill:none;stroke:#000000;stroke-width:0.5;stroke-linecap:butt;stroke-linejoin:miter;stroke-miterlimit:10;stroke-dasharray:none;stroke-opacity:1"
             d="M 0,0 C 0,0 5.504,3.25 13.002,1.75" /></g></g></g></g></svg>